<svg xmlns="http://www.w3.org/2000/svg" viewBox="0 0 16 16">
    <defs>
        <style>
            .cls-1{fill:none}.cls-2{fill:#a5a4bf;fill-rule:evenodd}
        </style>
    </defs>
    <g id="Calendar" transform="translate(-20 -446)">
        <g id="icon_calendar" transform="translate(-271 355)">
            <path id="Rectangle_557" d="M0 0h16v16H0z" class="cls-1" data-name="Rectangle 557" transform="translate(291 91)"/>
            <path id="Path_149" d="M2 5v9h12V5zm11-3h2a.945.945 0 0 1 1 1v12a.945.945 0 0 1-1 1H1a.945.945 0 0 1-1-1V3a.945.945 0 0 1 1-1h2V1a.945.945 0 0 1 1-1 .945.945 0 0 1 1 1v1h6V1a1 1 0 0 1 2 0zm-1 10h-2v-2h2zm-3 0H7v-2h2zm3-3h-2V7h2zM9 9H7V7h2zm-3 3H4v-2h2z" class="cls-2" data-name="Path 149" transform="translate(291 91)"/>
        </g>
    </g>
</svg>
