<svg xmlns="http://www.w3.org/2000/svg" viewBox="0 0 14 16">
    <defs>
        <style>
            .cls-1{fill:#a5a4bf}
        </style>
    </defs>
    <g id="Customers" transform="translate(-21 -328)">
        <g id="icon_customers" transform="translate(-200 237)">
            <path id="Union_10" d="M-4-310a6.018 6.018 0 0 1 6-6h2a6.018 6.018 0 0 1 6 6zm2.6-2h8.9a4.033 4.033 0 0 0-3.5-2H2.1a4.035 4.035 0 0 0-3.5 2zm.4-9v-1a4.012 4.012 0 0 1 4-4 4.012 4.012 0 0 1 4 4v1a4.012 4.012 0 0 1-4 4 4.012 4.012 0 0 1-4-4zm2-1v1a2.006 2.006 0 0 0 2 2 2.006 2.006 0 0 0 2-2v-1a2.006 2.006 0 0 0-2-2 2.006 2.006 0 0 0-2 2z" class="cls-1" data-name="Union 10" transform="translate(225 417)"/>
        </g>
    </g>
</svg>
