<svg xmlns="http://www.w3.org/2000/svg" viewBox="0 0 16 16">
    <defs>
        <style>
            .cls-1{fill:#a3a0fb}
        </style>
    </defs>
    <g id="Dashboard" transform="translate(-20 -138)">
        <g id="icon_dashboard" transform="translate(-59 11)">
            <path id="Union_8" d="M-481-8a.945.945 0 0 1-1-1v-9a.945.945 0 0 1 1-1h2a.945.945 0 0 1 1 1v9a.945.945 0 0 1-1 1zm-6 0a.944.944 0 0 1-1-1v-14a.945.945 0 0 1 1-1h2a.945.945 0 0 1 1 1v14a.944.944 0 0 1-1 1zm-6 0a.945.945 0 0 1-1-1v-4a.945.945 0 0 1 1-1h2a.946.946 0 0 1 1 1v4a.945.945 0 0 1-1 1z" class="cls-1" data-name="Union 8" transform="translate(573 151)"/>
        </g>
    </g>
</svg>
