<svg xmlns="http://www.w3.org/2000/svg" viewBox="0 0 16 14">
    <defs>
        <style>
            .cls-1{fill:#a5a4bf}
        </style>
    </defs>
    <g id="Inbox" transform="translate(-20 -187)">
        <g id="email-84" transform="translate(20 186)">
            <g id="icon_inbox" transform="translate(-115 -92)">
                <path id="Path_358" d="M15 1H1a1 1 0 0 0-1 1v12a1 1 0 0 0 1 1h14a1 1 0 0 0 1-1V2a1 1 0 0 0-1-1zm-1 12H2V6.723l5.5 3.145a1 1 0 0 0 .992 0L14 6.723zm0-8.58L8 7.849 2 4.42V3h12z" class="cls-1" data-name="Path 358" transform="translate(115 92)"/>
            </g>
        </g>
    </g>
</svg>
